# xmcd CD database file
#
# Track frame offsets:
#	150
#	13165
#	24690
#	35712
#	49500
#	56827
#	70455
#	83395
#	96415
#	108410
#	124392
#	138440
#	150512
#	165635
#	209140
#	221320
#	237022
#	250132
#	259665
#	271165
#
# Disc length: 3725 seconds
#
# Revision: 1
# Processed by: cddbd v1.5.2PL0 Copyright (c) Steve Scherf et al.
# Submitted via: jetAudio 7
#
DISCID=1e0e8b14
DTITLE=The Statler Brothers - Innerview and Country Music Then And Now
DYEAR=2012
DGENRE=Country
TTITLE0=Do You Remember These
TTITLE1=I'd Rather Be Sorry
TTITLE2=Every Day Will Be Sunday Bye And Bye
TTITLE3=She Thinks I Still Care
TTITLE4=Got Leavin' On Her Mind
TTITLE5=I'll Take Care Of You
TTITLE6=Take Me Home, Country Roads
TTITLE7=Daddy
TTITLE8=Never Ending Song Of Love
TTITLE9=A Different Song
TTITLE10=Since Then
TTITLE11=When My Blue Moon Turns To Gold Again
TTITLE12=No One Will Ever Know
TTITLE13=The Saturday Morning Radio Show
TTITLE14=The Class Of '57
TTITLE15=A Stranger In My Place
TTITLE16=Jesus Take Another Look At Me
TTITLE17=1953-Dear John-Honky-Tonk Blues
TTITLE18=Under It All
TTITLE19=Every Time I Trust A Gal
EXTD=
EXTT0=
EXTT1=
EXTT2=
EXTT3=
EXTT4=
EXTT5=
EXTT6=
EXTT7=
EXTT8=
EXTT9=
EXTT10=
EXTT11=
EXTT12=
EXTT13=
EXTT14=
EXTT15=
EXTT16=
EXTT17=
EXTT18=
EXTT19=
PLAYORDER=
